<svg width="1440" height="1215" viewBox="0 0 1440 1215" fill="none" xmlns="http://www.w3.org/2000/svg">
<g opacity="0.5">
<path opacity="0.0344828" d="M969.929 801.637C974.836 807.486 982.234 811.111 991.96 812.57C1001.69 814.03 1013.7 813.308 1027.7 810.51C1055.69 804.914 1091.45 791.061 1132.57 770.143C1214.79 728.315 1318.22 658.342 1423.35 570.132C1528.47 481.921 1615.34 392.216 1670.81 318.506C1698.55 281.645 1718.41 248.829 1728.78 222.232C1733.96 208.932 1736.76 197.237 1737.01 187.397C1737.26 177.566 1734.98 169.65 1730.07 163.802C1725.16 157.954 1717.77 154.329 1708.04 152.87C1698.31 151.41 1686.3 152.132 1672.31 154.93C1644.31 160.525 1608.55 174.379 1567.43 195.297C1485.21 237.125 1381.78 307.098 1276.65 395.308C1171.53 483.518 1084.66 573.224 1029.19 646.933C1001.45 683.794 981.594 716.61 971.223 743.208C966.037 756.507 963.241 768.203 962.988 778.043C962.736 787.874 965.022 795.789 969.929 801.637Z" stroke="#2B2C3B" stroke-width="2"/>
<path opacity="0.0689655" d="M999.171 837.517C1004.57 842.915 1012.25 845.882 1022.07 846.488C1031.9 847.094 1043.79 845.328 1057.49 841.321C1084.89 833.307 1119.31 816.389 1158.45 791.967C1236.71 743.132 1333.65 664.411 1430.69 567.374C1527.72 470.337 1606.44 373.402 1655.28 295.138C1679.7 256 1696.62 221.578 1704.63 194.178C1708.64 180.477 1710.41 168.583 1709.8 158.758C1709.19 148.942 1706.23 141.256 1700.83 135.858C1695.43 130.46 1687.75 127.493 1677.93 126.887C1668.1 126.281 1656.21 128.047 1642.51 132.054C1615.11 140.068 1580.69 156.986 1541.55 181.408C1463.29 230.243 1366.35 308.964 1269.31 406.001C1172.28 503.038 1093.56 599.973 1044.72 678.237C1020.3 717.375 1003.38 751.797 995.367 779.197C991.36 792.898 989.594 804.792 990.2 814.617C990.805 824.433 993.772 832.119 999.171 837.517Z" stroke="#2B2C3B" stroke-width="2"/>
<path opacity="0.103448" d="M1031.08 870.728C1036.93 875.635 1044.85 877.921 1054.68 877.669C1064.52 877.416 1076.21 874.621 1089.51 869.435C1116.11 859.063 1148.93 839.21 1185.79 811.469C1259.5 755.999 1349.2 669.129 1437.41 564.004C1525.62 458.879 1595.59 355.452 1637.42 273.23C1658.34 232.112 1672.19 196.347 1677.79 168.352C1680.59 154.354 1681.31 142.351 1679.85 132.617C1678.39 122.891 1674.77 115.493 1668.92 110.586C1663.07 105.679 1655.15 103.393 1645.32 103.645C1635.48 103.898 1623.79 106.693 1610.49 111.879C1583.89 122.251 1551.07 142.104 1514.21 169.845C1440.5 225.315 1350.8 312.185 1262.59 417.31C1174.38 522.435 1104.41 625.862 1062.58 708.084C1041.66 749.203 1027.81 784.967 1022.21 812.962C1019.41 826.96 1018.69 838.963 1020.15 848.697C1021.61 858.423 1025.23 865.821 1031.08 870.728Z" stroke="#2B2C3B" stroke-width="2"/>
<path opacity="0.137931" d="M1065.42 901.047C1071.67 905.426 1079.76 907.013 1089.53 905.905C1099.31 904.796 1110.72 900.991 1123.52 894.666C1149.11 882.016 1180.07 859.378 1214.37 828.53C1282.97 766.847 1364.76 672.489 1443.47 560.076C1522.18 447.663 1582.88 338.531 1617.38 252.976C1634.63 210.191 1645.32 173.355 1648.45 144.979C1650.02 130.791 1649.69 118.771 1647.39 109.201C1645.09 99.6389 1640.83 92.585 1634.58 88.2062C1628.32 83.8273 1620.24 82.2402 1610.47 83.3483C1600.69 84.4575 1589.28 88.2618 1576.48 94.5872C1550.89 107.237 1519.93 129.875 1485.63 160.723C1417.03 222.407 1335.24 316.764 1256.53 429.177C1177.82 541.59 1117.12 650.722 1082.62 736.277C1065.37 779.062 1054.68 815.898 1051.55 844.274C1049.98 858.462 1050.31 870.483 1052.61 880.053C1054.91 889.614 1059.17 896.668 1065.42 901.047Z" stroke="#2B2C3B" stroke-width="2"/>
<path opacity="0.172414" d="M1101.93 928.272C1108.54 932.089 1116.73 932.965 1126.37 931.01C1136.01 929.053 1147.05 924.268 1159.24 916.852C1183.64 902.019 1212.51 876.769 1243.99 843.049C1306.95 775.622 1380.2 674.495 1448.82 555.649C1517.44 436.804 1568.39 322.797 1595.3 234.561C1608.76 190.435 1616.19 152.808 1616.84 124.267C1617.17 109.996 1615.79 98.0496 1612.67 88.7168C1609.54 79.392 1604.69 72.736 1598.07 68.9188C1591.46 65.1017 1583.27 64.2251 1573.63 66.1808C1563.99 68.1381 1552.95 72.9221 1540.76 80.3388C1516.36 95.1715 1487.49 120.422 1456.01 154.141C1393.05 221.569 1319.79 322.696 1251.18 441.541C1182.56 560.387 1131.61 674.394 1104.7 762.63C1091.24 806.756 1083.81 844.383 1083.16 872.924C1082.83 887.195 1084.21 899.141 1087.33 908.474C1090.46 917.799 1095.31 924.455 1101.93 928.272Z" stroke="#2B2C3B" stroke-width="2"/>
<path opacity="0.206897" d="M1140.32 952.227C1147.24 955.454 1155.47 955.613 1164.91 952.825C1174.35 950.034 1184.92 944.307 1196.42 935.855C1219.43 918.953 1245.99 891.283 1274.41 854.947C1331.26 782.289 1395.42 675.162 1453.42 550.789C1511.41 426.416 1552.23 308.402 1571.36 218.156C1580.92 173.024 1585.04 134.893 1583.2 106.404C1582.28 92.1588 1579.87 80.3777 1575.94 71.3531C1572.02 62.3362 1566.6 56.1286 1559.68 52.9022C1552.76 49.6758 1544.52 49.5166 1535.09 52.3048C1525.65 55.0954 1515.08 60.8228 1503.58 69.2742C1480.57 86.1764 1454.01 113.847 1425.59 150.182C1368.74 222.84 1304.58 329.967 1246.58 454.341C1188.59 578.714 1147.77 696.728 1128.64 786.974C1119.08 832.105 1114.96 870.237 1116.8 898.726C1117.72 912.971 1120.13 924.752 1124.06 933.776C1127.98 942.793 1133.4 949.001 1140.32 952.227Z" stroke="#2B2C3B" stroke-width="2"/>
<path opacity="0.241379" d="M1180.31 972.762C1187.48 975.373 1195.7 974.813 1204.85 971.214C1214.01 967.611 1224.05 960.984 1234.77 951.562C1256.22 932.719 1280.26 902.839 1305.41 864.165C1355.71 786.829 1410.29 674.517 1457.23 545.563C1504.16 416.608 1534.54 295.486 1545.72 203.916C1551.32 158.123 1552.1 119.777 1547.79 91.557C1545.63 77.4464 1542.2 65.9201 1537.5 57.2723C1532.8 48.6319 1526.87 42.92 1519.69 40.309C1512.52 37.6979 1504.3 38.2571 1495.15 41.8568C1485.99 45.4594 1475.95 52.0865 1465.23 61.5084C1443.78 80.3515 1419.74 110.231 1394.59 148.906C1344.29 226.241 1289.71 338.553 1242.77 467.508C1195.84 596.463 1165.46 717.585 1154.27 809.154C1148.68 854.947 1147.9 893.293 1152.21 921.514C1154.37 935.624 1157.8 947.15 1162.5 955.798C1167.2 964.439 1173.13 970.15 1180.31 972.762Z" stroke="#2B2C3B" stroke-width="2"/>
<path opacity="0.275862" d="M1221.59 989.744C1228.96 991.72 1237.1 990.446 1245.9 986.063C1254.72 981.675 1264.13 974.199 1274 963.878C1293.72 943.238 1315.07 911.376 1336.75 870.656C1380.11 789.232 1424.7 672.59 1460.22 540.035C1495.74 407.481 1515.44 284.172 1518.61 191.976C1520.19 145.87 1517.63 107.601 1510.87 79.8646C1507.49 65.9958 1503.07 54.812 1497.63 46.6069C1492.2 38.4087 1485.79 33.2361 1478.41 31.2602C1471.04 29.2843 1462.9 30.5578 1454.09 34.9414C1445.28 39.3287 1435.87 46.8051 1426 57.1257C1406.28 77.7663 1384.93 109.628 1363.25 150.348C1319.89 231.772 1275.3 348.414 1239.78 480.969C1204.26 613.523 1184.56 736.832 1181.39 829.028C1179.81 875.134 1182.37 913.403 1189.13 941.139C1192.51 955.008 1196.93 966.192 1202.37 974.397C1207.8 982.595 1214.21 987.768 1221.59 989.744Z" stroke="#2B2C3B" stroke-width="2"/>
<path opacity="0.310345" d="M1263.84 1003.08C1271.36 1004.41 1279.36 1002.43 1287.75 997.295C1296.14 992.156 1304.87 983.887 1313.8 972.746C1331.65 950.465 1350.14 916.864 1368.19 874.41C1404.29 789.516 1438.54 669.432 1462.37 534.286C1486.2 399.14 1495.09 274.583 1490.2 182.462C1487.76 136.394 1481.87 98.4937 1472.72 71.4519C1468.15 57.9306 1462.77 47.1744 1456.64 39.4743C1450.51 31.7809 1443.67 27.1867 1436.16 25.8611C1428.64 24.5354 1420.64 26.5135 1412.25 31.6476C1403.86 36.7862 1395.13 45.055 1386.2 56.1959C1368.35 78.4768 1349.86 112.078 1331.81 154.533C1295.71 239.426 1261.46 359.511 1237.63 494.656C1213.8 629.802 1204.91 754.36 1209.8 846.48C1212.24 892.549 1218.13 930.449 1227.28 957.49C1231.85 971.012 1237.23 981.768 1243.36 989.468C1249.49 997.161 1256.33 1001.76 1263.84 1003.08Z" stroke="#2B2C3B" stroke-width="2"/>
<path opacity="0.344828" d="M1306.76 1012.7C1314.36 1013.37 1322.16 1010.7 1330.07 1004.85C1337.98 999.001 1345.96 990.003 1353.88 978.127C1369.72 954.375 1385.21 919.29 1399.49 875.423C1428.06 787.707 1451.71 665.094 1463.67 528.385C1475.63 391.677 1473.63 266.819 1460.73 175.475C1454.28 129.795 1445.12 92.5523 1433.64 66.411C1427.91 53.3399 1421.61 43.0932 1414.83 35.9569C1408.06 28.8266 1400.85 24.846 1393.24 24.1806C1385.64 23.5153 1377.84 26.1828 1369.93 32.0286C1362.02 37.8793 1354.04 46.8775 1346.12 58.7539C1330.28 82.5056 1314.79 117.591 1300.51 161.457C1271.94 249.174 1248.29 371.787 1236.33 508.495C1224.37 645.204 1226.37 770.061 1239.27 861.405C1245.72 907.086 1254.88 944.328 1266.36 970.47C1272.09 983.541 1278.39 993.787 1285.17 1000.92C1291.94 1008.05 1299.15 1012.03 1306.76 1012.7Z" stroke="#2B2C3B" stroke-width="2"/>
<path opacity="0.37931" d="M1350 1018.56C1357.63 1018.56 1365.17 1015.22 1372.54 1008.71C1379.91 1002.19 1387.07 992.531 1393.93 980.01C1407.64 954.968 1420.01 918.666 1430.42 873.722C1451.23 783.849 1464.11 659.642 1464.11 522.411C1464.11 385.18 1451.23 260.972 1430.42 171.1C1420.01 126.156 1407.64 89.8536 1393.93 64.8117C1387.07 52.2904 1379.91 42.6312 1372.54 36.1128C1365.17 29.6001 1357.63 26.2632 1350 26.2632C1342.37 26.2632 1334.83 29.6001 1327.46 36.1128C1320.09 42.6312 1312.93 52.2904 1306.07 64.8117C1292.36 89.8536 1279.99 126.156 1269.58 171.1C1248.77 260.972 1235.89 385.18 1235.89 522.411C1235.89 659.642 1248.77 783.849 1269.58 873.722C1279.99 918.666 1292.36 954.968 1306.07 980.01C1312.93 992.531 1320.09 1002.19 1327.46 1008.71C1334.83 1015.22 1342.37 1018.56 1350 1018.56Z" stroke="#2B2C3B" stroke-width="2"/>
<path opacity="0.413793" d="M1393.24 1020.64C1400.85 1019.98 1408.06 1015.99 1414.83 1008.86C1421.61 1001.73 1427.91 991.482 1433.64 978.411C1445.12 952.269 1454.28 915.027 1460.73 869.346C1473.63 778.002 1475.63 653.145 1463.67 516.436C1451.71 379.728 1428.06 257.115 1399.49 169.398C1385.21 125.532 1369.72 90.4466 1353.88 66.6948C1345.96 54.8185 1337.98 45.8202 1330.07 39.9695C1322.16 34.1238 1314.36 31.4562 1306.76 32.1216C1299.15 32.787 1291.94 36.7676 1285.17 43.8978C1278.39 51.0342 1272.09 61.2809 1266.36 74.352C1254.88 100.493 1245.72 137.736 1239.27 183.416C1226.37 274.76 1224.37 399.618 1236.33 536.326C1248.29 673.035 1271.94 795.648 1300.51 883.364C1314.79 927.231 1330.28 962.316 1346.12 986.068C1354.04 997.944 1362.02 1006.94 1369.93 1012.79C1377.84 1018.64 1385.64 1021.31 1393.24 1020.64Z" stroke="#2B2C3B" stroke-width="2"/>
<path opacity="0.448276" d="M1436.16 1018.96C1443.67 1017.64 1450.51 1013.04 1456.64 1005.35C1462.77 997.648 1468.15 986.891 1472.72 973.37C1481.87 946.328 1487.76 908.428 1490.2 862.36C1495.09 770.239 1486.2 645.682 1462.37 510.536C1438.54 375.39 1404.29 255.306 1368.19 170.412C1350.14 127.958 1331.65 94.3565 1313.8 72.0755C1304.88 60.9347 1296.14 52.6659 1287.75 47.5273C1279.36 42.3931 1271.36 40.415 1263.85 41.7407C1256.33 43.0664 1249.49 47.6605 1243.36 55.354C1237.23 63.054 1231.85 73.8102 1227.28 87.3316C1218.13 114.373 1212.24 152.273 1209.8 198.342C1204.91 290.462 1213.8 415.019 1237.63 550.165C1261.46 685.311 1295.71 805.396 1331.81 890.289C1349.86 932.744 1368.35 966.345 1386.2 988.626C1395.13 999.767 1403.86 1008.04 1412.25 1013.17C1420.64 1018.31 1428.64 1020.29 1436.16 1018.96Z" stroke="#2B2C3B" stroke-width="2"/>
<path opacity="0.482759" d="M1478.41 1013.56C1485.79 1011.58 1492.2 1006.41 1497.63 998.213C1503.07 990.008 1507.49 978.824 1510.87 964.956C1517.63 937.219 1520.19 898.951 1518.61 852.845C1515.44 760.649 1495.74 637.34 1460.22 504.785C1424.7 372.23 1380.11 255.588 1336.75 174.164C1315.07 133.444 1293.72 101.583 1274 80.942C1264.13 70.6213 1254.72 63.1449 1245.91 58.7576C1237.1 54.374 1228.96 53.1005 1221.59 55.0764C1214.21 57.0523 1207.8 62.225 1202.37 70.4231C1196.93 78.6283 1192.51 89.8121 1189.13 103.681C1182.37 131.417 1179.81 169.686 1181.4 215.792C1184.56 307.988 1204.26 431.297 1239.78 563.852C1275.3 696.406 1319.89 813.048 1363.25 894.473C1384.93 935.192 1406.28 967.054 1426 987.695C1435.87 998.015 1445.28 1005.49 1454.1 1009.88C1462.9 1014.26 1471.04 1015.54 1478.41 1013.56Z" stroke="#2B2C3B" stroke-width="2"/>
<path opacity="0.517241" d="M1519.69 1004.51C1526.87 1001.9 1532.8 996.192 1537.5 987.551C1542.2 978.903 1545.63 967.377 1547.79 953.267C1552.1 925.046 1551.32 886.7 1545.73 840.907C1534.54 749.338 1504.16 628.216 1457.23 499.261C1410.29 370.306 1355.71 257.994 1305.41 180.659C1280.26 141.984 1256.22 112.104 1234.77 93.2614C1224.05 83.8395 1214.01 77.2124 1204.85 73.6097C1195.7 70.0101 1187.48 69.4509 1180.31 72.0619C1173.13 74.673 1167.2 80.3849 1162.5 89.0253C1157.8 97.6731 1154.37 109.199 1152.21 123.31C1147.9 151.53 1148.68 189.876 1154.28 235.669C1165.46 327.239 1195.84 448.361 1242.77 577.315C1289.71 706.27 1344.29 818.582 1394.59 895.918C1419.74 934.592 1443.78 964.472 1465.23 983.315C1475.95 992.737 1485.99 999.364 1495.15 1002.97C1504.3 1006.57 1512.52 1007.13 1519.69 1004.51Z" stroke="#2B2C3B" stroke-width="2"/>
<path opacity="0.551724" d="M1559.68 991.919C1566.6 988.693 1572.02 982.485 1575.94 973.468C1579.87 964.444 1582.28 952.662 1583.2 938.417C1585.04 909.928 1580.92 871.797 1571.36 826.666C1552.23 736.419 1511.41 618.406 1453.42 494.032C1395.42 369.659 1331.26 262.532 1274.41 189.874C1245.99 153.539 1219.43 125.868 1196.42 108.966C1184.92 100.515 1174.35 94.7872 1164.91 91.9966C1155.48 89.2084 1147.24 89.3676 1140.32 92.594C1133.4 95.8204 1127.98 102.028 1124.06 111.045C1120.13 120.07 1117.72 131.851 1116.8 146.096C1114.96 174.585 1119.08 212.716 1128.64 257.847C1147.77 348.094 1188.59 466.107 1246.58 590.481C1304.58 714.854 1368.74 821.981 1425.59 894.639C1454.01 930.975 1480.57 958.645 1503.58 975.547C1515.08 983.998 1525.65 989.726 1535.09 992.516C1544.53 995.305 1552.76 995.145 1559.68 991.919Z" stroke="#2B2C3B" stroke-width="2"/>
<path opacity="0.586207" d="M1598.07 975.903C1604.69 972.086 1609.54 965.43 1612.67 956.105C1615.79 946.772 1617.17 934.826 1616.84 920.555C1616.19 892.014 1608.76 854.387 1595.3 810.261C1568.39 722.025 1517.44 608.018 1448.82 489.172C1380.21 370.327 1306.95 269.2 1243.99 201.772C1212.51 168.053 1183.64 142.802 1159.24 127.97C1147.05 120.553 1136.01 115.769 1126.37 113.812C1116.73 111.856 1108.54 112.733 1101.93 116.55C1095.31 120.367 1090.46 127.023 1087.33 136.348C1084.21 145.681 1082.83 157.627 1083.16 171.898C1083.81 200.439 1091.24 238.066 1104.7 282.192C1131.61 370.428 1182.56 484.435 1251.18 603.28C1319.8 722.126 1393.05 823.253 1456.01 890.68C1487.49 924.4 1516.36 949.65 1540.76 964.483C1552.95 971.899 1563.99 976.683 1573.63 978.641C1583.27 980.596 1591.46 979.72 1598.07 975.903Z" stroke="#2B2C3B" stroke-width="2"/>
<path opacity="0.62069" d="M1634.58 956.615C1640.83 952.236 1645.09 945.182 1647.39 935.621C1649.69 926.051 1650.02 914.03 1648.45 899.842C1645.32 871.466 1634.63 834.63 1617.38 791.845C1582.88 706.29 1522.18 597.158 1443.47 484.745C1364.76 372.332 1282.97 277.975 1214.37 216.291C1180.07 185.444 1149.11 162.806 1123.52 150.155C1110.72 143.83 1099.31 140.026 1089.53 138.916C1079.76 137.808 1071.67 139.395 1065.42 143.774C1059.17 148.153 1054.91 155.207 1052.61 164.769C1050.31 174.339 1049.98 186.359 1051.55 200.547C1054.68 228.923 1065.37 265.759 1082.62 308.544C1117.12 394.099 1177.82 503.231 1256.53 615.644C1335.24 728.057 1417.03 822.415 1485.63 884.098C1519.93 914.946 1550.89 937.584 1576.48 950.234C1589.28 956.559 1600.69 960.364 1610.47 961.473C1620.24 962.581 1628.32 960.994 1634.58 956.615Z" stroke="#2B2C3B" stroke-width="2"/>
<path opacity="0.655172" d="M1668.92 934.236C1674.77 929.329 1678.39 921.931 1679.85 912.205C1681.31 902.471 1680.59 890.468 1677.79 876.47C1672.19 848.475 1658.34 812.711 1637.42 771.592C1595.59 689.37 1525.62 585.943 1437.41 480.818C1349.2 375.693 1259.5 288.823 1185.79 233.353C1148.93 205.613 1116.11 185.759 1089.51 175.387C1076.21 170.201 1064.52 167.406 1054.68 167.153C1044.85 166.901 1036.93 169.187 1031.08 174.094C1025.23 179.001 1021.61 186.399 1020.15 196.125C1018.69 205.859 1019.41 217.862 1022.21 231.86C1027.81 259.855 1041.66 295.62 1062.58 336.738C1104.41 418.96 1174.38 522.388 1262.59 627.512C1350.8 732.637 1440.5 819.507 1514.21 874.978C1551.07 902.718 1583.89 922.571 1610.49 932.943C1623.79 938.129 1635.48 940.925 1645.32 941.177C1655.15 941.429 1663.07 939.144 1668.92 934.236Z" stroke="#2B2C3B" stroke-width="2"/>
<path opacity="0.689655" d="M1700.83 908.963C1706.23 903.565 1709.19 895.879 1709.8 886.063C1710.41 876.239 1708.64 864.344 1704.63 850.644C1696.62 823.243 1679.7 788.822 1655.28 749.683C1606.44 671.42 1527.72 574.484 1430.69 477.447C1333.65 380.41 1236.71 301.69 1158.45 252.854C1119.31 228.432 1084.89 211.515 1057.49 203.501C1043.79 199.493 1031.9 197.728 1022.07 198.334C1012.25 198.939 1004.57 201.906 999.171 207.305C993.772 212.703 990.805 220.389 990.2 230.205C989.594 240.029 991.36 251.924 995.367 265.624C1003.38 293.025 1020.3 327.446 1044.72 366.585C1093.56 444.848 1172.28 541.784 1269.31 638.82C1366.35 735.857 1463.29 814.578 1541.55 863.413C1580.69 887.835 1615.11 904.753 1642.51 912.767C1656.21 916.774 1668.1 918.54 1677.93 917.934C1687.75 917.328 1695.43 914.362 1700.83 908.963Z" stroke="#2B2C3B" stroke-width="2"/>
<path opacity="0.724138" d="M1730.07 881.021C1734.98 875.172 1737.26 867.257 1737.01 857.426C1736.76 847.586 1733.96 835.891 1728.78 822.591C1718.41 795.994 1698.55 763.178 1670.81 726.317C1615.34 652.607 1528.47 562.902 1423.35 474.691C1318.22 386.481 1214.8 316.508 1132.57 274.68C1091.45 253.762 1055.69 239.909 1027.7 234.313C1013.7 231.515 1001.69 230.793 991.96 232.253C982.234 233.712 974.836 237.337 969.929 243.185C965.022 249.034 962.736 256.949 962.988 266.78C963.241 276.62 966.037 288.316 971.223 301.615C981.594 328.213 1001.45 361.028 1029.19 397.89C1084.66 471.599 1171.53 561.305 1276.65 649.515C1381.78 737.725 1485.21 807.698 1567.43 849.526C1608.55 870.444 1644.31 884.298 1672.31 889.893C1686.3 892.691 1698.31 893.413 1708.04 891.953C1717.77 890.494 1725.16 886.869 1730.07 881.021Z" stroke="#2B2C3B" stroke-width="2"/>
<path opacity="0.758621" d="M1756.42 850.651C1760.8 844.398 1762.39 836.314 1761.28 826.542C1760.17 816.761 1756.36 805.354 1750.04 792.557C1737.39 766.965 1714.75 736.004 1683.9 701.701C1622.22 633.107 1527.86 551.313 1415.45 472.601C1303.04 393.889 1193.9 333.197 1108.35 298.693C1065.56 281.439 1028.73 270.755 1000.35 267.621C986.165 266.054 974.144 266.38 964.574 268.683C955.012 270.984 947.959 275.241 943.58 281.494C939.201 287.748 937.614 295.832 938.722 305.604C939.831 315.385 943.635 326.792 949.961 339.589C962.611 365.181 985.249 396.142 1016.1 430.445C1077.78 499.039 1172.14 580.832 1284.55 659.545C1396.96 738.257 1506.1 798.949 1591.65 833.452C1634.44 850.707 1671.27 861.391 1699.65 864.525C1713.84 866.092 1725.86 865.765 1735.43 863.462C1744.99 861.162 1752.04 856.905 1756.42 850.651Z" stroke="#2B2C3B" stroke-width="2"/>
<path opacity="0.793103" d="M1779.68 818.116C1783.49 811.504 1784.37 803.312 1782.41 793.674C1780.46 784.028 1775.67 772.995 1768.26 760.799C1753.42 736.406 1728.17 707.536 1694.45 676.052C1627.03 613.095 1525.9 539.837 1407.05 471.221C1288.21 402.606 1174.2 351.656 1085.97 324.741C1041.84 311.281 1004.21 303.849 975.672 303.199C961.401 302.875 949.454 304.248 940.122 307.376C930.797 310.502 924.141 315.357 920.324 321.968C916.506 328.58 915.63 336.771 917.586 346.41C919.543 356.056 924.327 367.088 931.744 379.285C946.576 403.678 971.826 432.548 1005.55 464.032C1072.97 526.989 1174.1 600.247 1292.95 668.862C1411.79 737.478 1525.8 788.427 1614.03 815.343C1658.16 828.803 1695.79 836.235 1724.33 836.884C1738.6 837.209 1750.55 835.836 1759.88 832.708C1769.2 829.582 1775.86 824.727 1779.68 818.116Z" stroke="#2B2C3B" stroke-width="2"/>
<path opacity="0.827586" d="M1799.66 783.693C1802.89 776.774 1803.05 768.537 1800.26 759.105C1797.47 749.666 1791.74 739.093 1783.29 727.589C1766.39 704.582 1738.72 678.023 1702.38 649.597C1629.72 592.756 1522.6 528.591 1398.22 470.595C1273.85 412.598 1155.84 371.779 1065.59 352.656C1020.46 343.093 982.328 338.969 953.839 340.809C939.594 341.73 927.813 344.139 918.789 348.069C909.772 351.995 903.564 357.411 900.338 364.33C897.111 371.25 896.952 379.487 899.74 388.918C902.531 398.357 908.258 408.93 916.71 420.434C933.612 443.441 961.282 470 997.618 498.426C1070.28 555.267 1177.4 619.432 1301.78 677.429C1426.15 735.425 1544.16 776.244 1634.41 795.367C1679.54 804.93 1717.67 809.054 1746.16 807.214C1760.41 806.293 1772.19 803.884 1781.21 799.955C1790.23 796.028 1796.44 790.612 1799.66 783.693Z" stroke="#2B2C3B" stroke-width="2"/>
<path opacity="0.862069" d="M1816.23 747.673C1818.84 740.499 1818.28 732.279 1814.68 723.127C1811.08 713.967 1804.45 703.933 1795.03 693.21C1776.18 671.763 1746.3 647.717 1707.63 622.566C1630.29 572.274 1517.98 517.69 1389.03 470.754C1260.07 423.818 1138.95 393.44 1047.38 382.255C1001.59 376.662 963.241 375.877 935.021 380.193C920.911 382.352 909.384 385.778 900.737 390.48C892.096 395.177 886.384 401.114 883.773 408.288C881.162 415.462 881.722 423.681 885.321 432.834C888.924 441.994 895.551 452.028 904.973 462.751C923.816 484.198 953.696 508.244 992.37 533.395C1069.71 583.687 1182.02 638.271 1310.97 685.207C1439.93 732.143 1561.05 762.521 1652.62 773.705C1698.41 779.299 1736.76 780.084 1764.98 775.767C1779.09 773.609 1790.61 770.182 1799.26 765.481C1807.9 760.784 1813.61 754.847 1816.23 747.673Z" stroke="#2B2C3B" stroke-width="2"/>
<path opacity="0.896552" d="M1829.24 710.362C1831.22 702.988 1829.94 694.848 1825.56 686.045C1821.17 677.233 1813.7 667.815 1803.38 657.954C1782.74 638.231 1750.87 616.88 1710.15 595.196C1628.73 551.836 1512.09 507.247 1379.53 471.73C1246.98 436.212 1123.67 416.505 1031.47 413.344C985.368 411.763 947.099 414.323 919.363 421.083C905.494 424.463 894.31 428.881 886.105 434.318C877.907 439.75 872.734 446.163 870.758 453.537C868.782 460.911 870.056 469.051 874.439 477.854C878.827 486.666 886.303 496.084 896.624 505.945C917.264 525.668 949.126 547.019 989.846 568.703C1071.27 612.063 1187.91 656.651 1320.47 692.169C1453.02 727.687 1576.33 747.394 1668.53 750.555C1714.63 752.135 1752.9 749.576 1780.64 742.816C1794.51 739.436 1805.69 735.018 1813.9 729.581C1822.09 724.148 1827.27 717.736 1829.24 710.362Z" stroke="#2B2C3B" stroke-width="2"/>
<path opacity="0.931035" d="M1838.61 672.074C1839.94 664.556 1837.96 656.558 1832.82 648.17C1827.68 639.775 1819.42 631.044 1808.28 622.12C1785.99 604.271 1752.39 585.779 1709.94 567.726C1625.04 531.627 1504.96 497.374 1369.81 473.545C1234.67 449.715 1110.11 440.83 1017.99 445.717C971.922 448.161 934.023 454.046 906.981 463.197C893.459 467.773 882.703 473.149 875.003 479.281C867.31 485.407 862.716 492.246 861.39 499.764C860.064 507.282 862.042 515.28 867.176 523.668C872.315 532.063 880.584 540.794 891.725 549.719C914.006 567.567 947.607 586.06 990.062 604.112C1074.96 640.211 1195.04 674.464 1330.19 698.294C1465.33 722.123 1589.89 731.008 1682.01 726.121C1728.08 723.678 1765.98 717.793 1793.02 708.641C1806.54 704.065 1817.3 698.689 1825 692.558C1832.69 686.431 1837.28 679.593 1838.61 672.074Z" stroke="#2B2C3B" stroke-width="2"/>
<path opacity="0.965517" d="M1844.26 633.129C1844.92 625.524 1842.26 617.729 1836.41 609.82C1830.56 601.905 1821.56 593.928 1809.69 586.009C1785.93 570.17 1750.85 554.676 1706.98 540.392C1619.27 511.83 1496.65 488.174 1359.94 476.213C1223.24 464.253 1098.38 466.258 1007.03 479.155C961.355 485.604 924.112 494.77 897.97 506.244C884.899 511.981 874.653 518.274 867.516 525.053C860.386 531.827 856.405 539.04 855.74 546.645C855.075 554.25 857.742 562.045 863.588 569.954C869.439 577.869 878.437 585.846 890.313 593.766C914.065 609.604 949.15 625.098 993.017 639.382C1080.73 667.944 1203.35 691.6 1340.05 703.561C1476.76 715.521 1601.62 713.516 1692.96 700.619C1738.65 694.17 1775.89 685.004 1802.03 673.53C1815.1 667.793 1825.35 661.5 1832.48 654.721C1839.61 647.948 1843.59 640.734 1844.26 633.129Z" stroke="#2B2C3B" stroke-width="2"/>
<path d="M1846.15 593.857C1846.15 586.223 1842.81 578.69 1836.3 571.321C1829.78 563.946 1820.12 556.783 1807.6 549.929C1782.56 536.221 1746.26 523.844 1701.31 513.438C1611.44 492.629 1487.23 479.749 1350 479.749C1212.77 479.749 1088.56 492.629 998.689 513.438C953.745 523.844 917.443 536.221 892.401 549.929C879.88 556.783 870.22 563.946 863.702 571.321C857.189 578.69 853.853 586.223 853.853 593.857C853.853 601.491 857.189 609.024 863.702 616.393C870.22 623.769 879.88 630.931 892.401 637.785C917.443 651.493 953.745 663.87 998.689 674.276C1088.56 695.085 1212.77 707.965 1350 707.965C1487.23 707.965 1611.44 695.085 1701.31 674.276C1746.26 663.87 1782.56 651.493 1807.6 637.785C1820.12 630.931 1829.78 623.769 1836.3 616.393C1842.81 609.024 1846.15 601.491 1846.15 593.857Z" stroke="#2B2C3B" stroke-width="2"/>
</g>
</svg>
